<svg xmlns="http://www.w3.org/2000/svg" version="1.1" xmlns:xlink="http://www.w3.org/1999/xlink" xmlns:svgjs="http://svgjs.dev/svgjs" width="1500" height="1500" viewBox="0 0 1500 1500"><rect width="1500" height="1500" fill="#000000"></rect><g transform="matrix(0.6666666666666666,0,0,0.6666666666666666,250,187.66666666666674)"><svg viewBox="0 0 320 360" data-background-color="#000000" preserveAspectRatio="xMidYMid meet" height="1687" width="1500" xmlns="http://www.w3.org/2000/svg" xmlns:xlink="http://www.w3.org/1999/xlink"><g id="tight-bounds" transform="matrix(1,0,0,1,0,0)"><svg viewBox="0 0 320 360" height="360" width="320"><g><svg></svg></g><g><svg viewBox="0 0 320 360" height="360" width="320"><g><path d="M160 340c88.258 0 160-71.742 160-160 0-88.258-71.742-160-160-160-88.258 0-160 71.742-160 160 0 88.258 71.742 160 160 160zM165.161 329.368v-10.323c72.671-2.684 131.2-61.213 133.884-133.884h10.323c-2.684 78.452-65.755 141.523-144.207 144.207zM165.161 30.632c78.452 2.684 141.523 65.755 144.207 144.207h-10.323c-2.684-72.671-61.213-131.2-133.884-133.884zM289.032 180c0 71.123-57.91 129.032-129.032 129.032-71.123 0-129.032-57.91-129.032-129.032 0-71.123 57.91-129.032 129.032-129.032 71.123 0 129.032 57.91 129.032 129.032zM154.839 30.632v10.323c-72.671 2.684-131.2 61.213-133.884 133.884h-10.323c2.684-78.452 65.755-141.523 144.207-144.207zM20.955 185.161c2.684 72.671 61.213 131.2 133.884 133.884v10.323c-78.452-2.684-141.523-65.755-144.207-144.207z" fill="#a000c8" fill-rule="nonzero" stroke="none" stroke-width="1" stroke-linecap="butt" stroke-linejoin="miter" stroke-miterlimit="10" stroke-dasharray="" stroke-dashoffset="0" font-family="none" font-weight="none" font-size="none" text-anchor="none" style="mix-blend-mode: normal" data-fill-palette-color="tertiary"></path></g><g transform="matrix(1,0,0,1,64,114.29737609329446)"><svg viewBox="0 0 192 131.40524781341108" height="131.40524781341108" width="192"><g><svg viewBox="0 0 192 131.40524781341108" height="131.40524781341108" width="192"><g><svg viewBox="0 0 192 131.40524781341108" height="131.40524781341108" width="192"><g><svg viewBox="0 0 192 131.40524781341108" height="131.40524781341108" width="192"><g id="textblocktransform"><svg viewBox="0 0 192 131.40524781341108" height="131.40524781341108" width="192" id="textblock"><g><svg viewBox="0 0 192 131.40524781341108" height="131.40524781341108" width="192"><g transform="matrix(1,0,0,1,0,0)"><svg width="192" viewBox="105.14999999999999 -36.5 205.80000000000007 137.1" height="131.40524781341108" data-palette-color="#ebf446"><svg></svg><svg></svg><svg></svg><g class="wordmark-text-0" data-fill-palette-color="primary" id="text-0"><path d="M210.58 5.95h-13c-0.767 0-1.383-0.14-1.85-0.42-0.467-0.287-0.85-0.797-1.15-1.53v0l-4.9-12.25c-0.3-0.767-0.557-1.427-0.77-1.98-0.22-0.547-0.397-1.08-0.53-1.6-0.133-0.513-0.223-1.063-0.27-1.65-0.053-0.58-0.08-1.27-0.08-2.07v0-13.2c0-0.433 0.06-0.8 0.18-1.1 0.113-0.3 0.287-0.55 0.52-0.75v0l6.45-5.45c0.167-0.133 0.393-0.243 0.68-0.33 0.28-0.08 0.587-0.12 0.92-0.12v0h7.95c0.8 0 1.41 0.19 1.83 0.57 0.413 0.387 0.62 0.963 0.62 1.73v0 13.8c0 0.333 0.033 0.65 0.1 0.95 0.067 0.3 0.15 0.617 0.25 0.95v0l0.15 0.35v-10.6c0-0.433 0.06-0.8 0.18-1.1 0.113-0.3 0.287-0.55 0.52-0.75v0l6.45-5.45c0.167-0.133 0.393-0.243 0.68-0.33 0.28-0.08 0.587-0.12 0.92-0.12v0h7.85c0.833 0 1.427 0.183 1.78 0.55 0.347 0.367 0.52 0.95 0.52 1.75v0 13.2c0 0.8-0.023 1.49-0.07 2.07-0.053 0.587-0.147 1.137-0.28 1.65-0.133 0.52-0.307 1.053-0.52 1.6-0.22 0.553-0.48 1.213-0.78 1.98v0l-4.9 12.25c-0.1 0.3-0.233 0.567-0.4 0.8-0.167 0.233-0.333 0.417-0.5 0.55v0l-6.45 5.35c-0.267 0.233-0.573 0.41-0.92 0.53-0.353 0.113-0.747 0.17-1.18 0.17zM204.03 0h13c0.633 0 1.16-0.117 1.58-0.35 0.413-0.233 0.737-0.667 0.97-1.3v0l4.9-12.25c0.3-0.733 0.55-1.377 0.75-1.93 0.2-0.547 0.367-1.07 0.5-1.57 0.133-0.5 0.227-1.027 0.28-1.58 0.047-0.547 0.07-1.22 0.07-2.02v0-13.2c0-0.633-0.14-1.093-0.42-1.38-0.287-0.28-0.747-0.42-1.38-0.42v0h-7.85c-0.633 0-1.09 0.14-1.37 0.42-0.287 0.287-0.43 0.747-0.43 1.38v0 13.75c0 0.333-0.033 0.667-0.1 1-0.067 0.333-0.167 0.683-0.3 1.05v0l-2.35 7.05c-0.1 0.333-0.217 0.557-0.35 0.67-0.133 0.12-0.333 0.18-0.6 0.18v0h-0.55c-0.267 0-0.467-0.06-0.6-0.18-0.133-0.113-0.25-0.337-0.35-0.67v0l-2.35-7c-0.133-0.367-0.233-0.717-0.3-1.05-0.067-0.333-0.1-0.667-0.1-1v0-13.8c0-0.633-0.167-1.093-0.5-1.38-0.333-0.28-0.817-0.42-1.45-0.42v0h-7.95c-0.633 0-1.09 0.14-1.37 0.42-0.287 0.287-0.43 0.747-0.43 1.38v0 13.2c0 0.8 0.027 1.473 0.08 2.02 0.047 0.553 0.137 1.08 0.27 1.58 0.133 0.5 0.3 1.023 0.5 1.57 0.2 0.553 0.45 1.197 0.75 1.93v0l4.9 12.25c0.233 0.633 0.56 1.067 0.98 1.3 0.413 0.233 0.937 0.35 1.57 0.35zM200.63-20.7v-10.8h0.5v10.8c0 0.867 0.067 1.69 0.2 2.47 0.133 0.787 0.333 1.513 0.6 2.18v0l3.3 8c0.333 0.867 0.71 1.59 1.13 2.17 0.413 0.587 1.087 0.88 2.02 0.88v0h4.4c0.933 0 1.61-0.293 2.03-0.88 0.413-0.58 0.787-1.303 1.12-2.17v0l3.3-8c0.267-0.667 0.467-1.393 0.6-2.18 0.133-0.78 0.2-1.603 0.2-2.47v0-10.8h0.5v10.8c0 0.933-0.057 1.79-0.17 2.57-0.12 0.787-0.33 1.547-0.63 2.28v0l-3.3 8c-0.4 0.967-0.85 1.767-1.35 2.4-0.5 0.633-1.267 0.95-2.3 0.95v0h-4.4c-1.033 0-1.8-0.317-2.3-0.95-0.5-0.633-0.95-1.433-1.35-2.4v0l-3.3-8c-0.3-0.733-0.507-1.493-0.62-2.28-0.12-0.78-0.18-1.637-0.18-2.57z" fill="#ebf446" fill-rule="nonzero" stroke="none" stroke-width="1" stroke-linecap="butt" stroke-linejoin="miter" stroke-miterlimit="10" stroke-dasharray="" stroke-dashoffset="0" font-family="none" font-weight="none" font-size="none" text-anchor="none" style="mix-blend-mode: normal" data-fill-palette-color="primary" opacity="1"></path><path d="M142.37 52.9h-15.8c-0.8 0-1.383-0.183-1.75-0.55-0.367-0.367-0.55-0.95-0.55-1.75v0-5.85c0-0.433 0.06-0.8 0.18-1.1 0.113-0.3 0.287-0.55 0.52-0.75v0l5-4.2c-1.767-0.533-3.157-1.443-4.17-2.73-1.02-1.28-1.53-3.12-1.53-5.52v0-5.25c0-1.5 0.25-2.833 0.75-4 0.5-1.167 1.217-2.15 2.15-2.95v0l6.5-5.45c0.9-0.733 2.017-1.31 3.35-1.73 1.333-0.413 2.85-0.62 4.55-0.62v0h14c0.8 0 1.383 0.183 1.75 0.55 0.367 0.367 0.55 0.95 0.55 1.75v0 5.95c0 0.433-0.06 0.8-0.18 1.1-0.113 0.3-0.287 0.55-0.52 0.75v0l-4.5 3.75c2.1 0.467 3.793 1.34 5.08 2.62 1.28 1.287 1.92 3.28 1.92 5.98v0 5.25c0 1.5-0.25 2.833-0.75 4-0.5 1.167-1.233 2.15-2.2 2.95v0l-6.45 5.4c-0.933 0.767-2.067 1.36-3.4 1.78-1.333 0.413-2.833 0.62-4.5 0.62zM133.02 46.95h15.8c3.2 0 5.727-0.757 7.58-2.27 1.847-1.52 2.77-3.697 2.77-6.53v0-5.25c0-2.8-0.717-4.8-2.15-6-1.433-1.2-3.317-1.967-5.65-2.3v0l-7.45-1c-0.433-0.033-0.767-0.2-1-0.5-0.233-0.3-0.35-0.667-0.35-1.1v0c0-0.433 0.117-0.793 0.35-1.08 0.233-0.28 0.567-0.42 1-0.42v0h11.65c0.633 0 1.09-0.143 1.37-0.43 0.287-0.28 0.43-0.737 0.43-1.37v0-5.95c0-0.633-0.143-1.093-0.43-1.38-0.28-0.28-0.737-0.42-1.37-0.42v0h-14c-3.233 0-5.767 0.757-7.6 2.27-1.833 1.52-2.75 3.697-2.75 6.53v0 5.25c0 2.8 0.71 4.8 2.13 6 1.413 1.2 3.287 1.967 5.62 2.3v0l7.5 1.05c0.433 0.033 0.76 0.183 0.98 0.45 0.213 0.267 0.32 0.683 0.32 1.25v0c0 0.4-0.107 0.74-0.32 1.02-0.22 0.287-0.547 0.43-0.98 0.43v0h-13.45c-0.633 0-1.093 0.14-1.38 0.42-0.28 0.287-0.42 0.747-0.42 1.38v0 5.85c0 0.633 0.14 1.09 0.42 1.37 0.287 0.287 0.747 0.43 1.38 0.43zM141.77 15.45h11.1v0.5h-11.1c-1.4 0-2.517 0.383-3.35 1.15-0.833 0.767-1.25 1.733-1.25 2.9v0 4.1c0 1.167 0.233 1.983 0.7 2.45 0.467 0.467 1.083 0.767 1.85 0.9v0l10.55 2.15c1 0.2 1.827 0.633 2.48 1.3 0.647 0.667 0.97 1.867 0.97 3.6v0 2.9c0 1.467-0.5 2.673-1.5 3.62-1 0.953-2.35 1.43-4.05 1.43v0h-12.45v-0.5h12.45c1.533 0 2.76-0.427 3.68-1.28 0.913-0.847 1.37-1.937 1.37-3.27v0-2.9c0-1.567-0.273-2.643-0.82-3.23-0.553-0.58-1.297-0.97-2.23-1.17v0l-10.55-2.15c-0.867-0.167-1.573-0.51-2.12-1.03-0.553-0.513-0.83-1.453-0.83-2.82v0-4.1c0-1.333 0.467-2.427 1.4-3.28 0.933-0.847 2.167-1.27 3.7-1.27zM175.52 42.45h-0.5v-27h0.5v13.25h19.2v-13.25h0.5v27h-0.5v-13.25h-19.2zM171.42 46.95h7.75c0.633 0 1.093-0.143 1.38-0.43 0.28-0.28 0.42-0.737 0.42-1.37v0-11.1h8.35v11.1c0 0.633 0.143 1.09 0.43 1.37 0.28 0.287 0.737 0.43 1.37 0.43v0h7.75c0.633 0 1.093-0.143 1.38-0.43 0.28-0.28 0.42-0.737 0.42-1.37v0-32.4c0-0.633-0.14-1.093-0.42-1.38-0.287-0.28-0.747-0.42-1.38-0.42v0h-7.75c-0.633 0-1.09 0.14-1.37 0.42-0.287 0.287-0.43 0.747-0.43 1.38v0 10.85h-8.35v-10.85c0-0.633-0.14-1.093-0.42-1.38-0.287-0.28-0.747-0.42-1.38-0.42v0h-7.75c-0.633 0-1.09 0.14-1.37 0.42-0.287 0.287-0.43 0.747-0.43 1.38v0 32.4c0 0.633 0.143 1.09 0.43 1.37 0.28 0.287 0.737 0.43 1.37 0.43zM180.77 47v0l-6.5 5.4c-0.133 0.133-0.34 0.25-0.62 0.35-0.287 0.1-0.597 0.15-0.93 0.15v0h-7.75c-0.8 0-1.383-0.183-1.75-0.55-0.367-0.367-0.55-0.95-0.55-1.75v0-32.4c0-0.433 0.057-0.8 0.17-1.1 0.12-0.3 0.297-0.55 0.53-0.75v0l6.45-5.45c0.167-0.133 0.393-0.243 0.68-0.33 0.28-0.08 0.587-0.12 0.92-0.12v0h7.75c0.8 0 1.383 0.183 1.75 0.55 0.367 0.367 0.55 0.95 0.55 1.75v0 10.35h0.9v-4.9c0-0.433 0.06-0.8 0.18-1.1 0.113-0.3 0.287-0.55 0.52-0.75v0l6.45-5.45c0.167-0.133 0.393-0.243 0.68-0.33 0.28-0.08 0.587-0.12 0.92-0.12v0h7.75c0.8 0 1.383 0.183 1.75 0.55 0.367 0.367 0.55 0.95 0.55 1.75v0 32.4c0 0.433-0.057 0.8-0.17 1.1-0.12 0.3-0.297 0.55-0.53 0.75v0l-6.5 5.4c-0.133 0.133-0.34 0.25-0.62 0.35-0.287 0.1-0.597 0.15-0.93 0.15v0h-7.75c-0.8 0-1.383-0.183-1.75-0.55-0.367-0.367-0.55-0.95-0.55-1.75v0-10.6h-0.9v5.15c0 0.433-0.057 0.8-0.17 1.1-0.12 0.3-0.297 0.55-0.53 0.75zM240.57 45.1l-6.45 5.4c-1.167 1-2.8 1.777-4.9 2.33-2.1 0.547-4.8 0.82-8.1 0.82v0c-3.267 0-5.94-0.34-8.02-1.02-2.087-0.687-3.72-1.597-4.9-2.73-1.187-1.133-2.003-2.433-2.45-3.9-0.453-1.467-0.68-2.983-0.68-4.55v0-15.55c0-1.533 0.217-2.96 0.65-4.28 0.433-1.313 1.217-2.437 2.35-3.37v0l6.5-5.4c1.167-1 2.793-1.777 4.88-2.33 2.08-0.547 4.787-0.82 8.12-0.82v0c3.267 0 5.943 0.267 8.03 0.8 2.08 0.533 3.713 1.273 4.9 2.22 1.18 0.953 1.987 2.087 2.42 3.4 0.433 1.32 0.65 2.763 0.65 4.33v0 17.05c0 1.533-0.217 2.95-0.65 4.25-0.433 1.3-1.217 2.417-2.35 3.35zM243.07 37.5v0-17.05c0-1.533-0.223-2.927-0.67-4.18-0.453-1.247-1.253-2.32-2.4-3.22-1.153-0.9-2.737-1.6-4.75-2.1-2.02-0.5-4.58-0.75-7.68-0.75v0c-3.1 0-5.667 0.25-7.7 0.75-2.033 0.5-3.623 1.2-4.77 2.1-1.153 0.9-1.953 1.973-2.4 3.22-0.453 1.253-0.68 2.647-0.68 4.18v0 17.05c0 1.533 0.227 2.923 0.68 4.17 0.447 1.253 1.247 2.32 2.4 3.2 1.147 0.887 2.737 1.58 4.77 2.08 2.033 0.5 4.6 0.75 7.7 0.75v0c3.1 0 5.66-0.25 7.68-0.75 2.013-0.5 3.597-1.193 4.75-2.08 1.147-0.88 1.947-1.947 2.4-3.2 0.447-1.247 0.67-2.637 0.67-4.17zM237.62 21.6v14.75c0 2-0.717 3.623-2.15 4.87-1.433 1.253-4.1 1.88-8 1.88v0c-3.9 0-6.55-0.627-7.95-1.88-1.4-1.247-2.1-2.87-2.1-4.87v0-14.75c0-2 0.7-3.627 2.1-4.88 1.4-1.247 4.05-1.87 7.95-1.87v0c3.9 0 6.567 0.623 8 1.87 1.433 1.253 2.15 2.88 2.15 4.88zM217.92 21.6v14.75c0 1.867 0.667 3.373 2 4.52 1.333 1.153 3.85 1.73 7.55 1.73v0c3.7 0 6.233-0.577 7.6-1.73 1.367-1.147 2.05-2.653 2.05-4.52v0-14.75c0-1.867-0.683-3.377-2.05-4.53-1.367-1.147-3.9-1.72-7.6-1.72v0c-3.7 0-6.217 0.573-7.55 1.72-1.333 1.153-2 2.663-2 4.53zM223.37 35.7v0-13.45c0-0.633 0.25-1.177 0.75-1.63 0.5-0.447 1.65-0.67 3.45-0.67v0c1.8 0 2.95 0.223 3.45 0.67 0.5 0.453 0.75 0.997 0.75 1.63v0 13.45c0 0.667-0.25 1.223-0.75 1.67-0.5 0.453-1.65 0.68-3.45 0.68v0c-1.8 0-2.95-0.227-3.45-0.68-0.5-0.447-0.75-1.003-0.75-1.67zM223.87 26.25v9.45c0 0.333 0.067 0.623 0.2 0.87 0.133 0.253 0.383 0.463 0.75 0.63v0-9.5c0-0.333-0.067-0.627-0.2-0.88-0.133-0.247-0.383-0.437-0.75-0.57zM271.17 29.7h1.25c0.533 0 0.96 0.157 1.28 0.47 0.313 0.32 0.703 0.947 1.17 1.88v0l4.6 9.2c0.167 0.333 0.377 0.533 0.63 0.6 0.247 0.067 0.487 0.1 0.72 0.1v0h0.25c0.267 0 0.517-0.11 0.75-0.33 0.233-0.213 0.367-0.453 0.4-0.72v0l1.25-5.7c0.133-0.633 0.21-1.45 0.23-2.45 0.013-1 0.02-1.867 0.02-2.6v0-14.7h0.5v14.75c0 0.733-0.007 1.6-0.02 2.6-0.02 1-0.097 1.817-0.23 2.45v0l-1.25 5.65c-0.133 0.533-0.34 0.923-0.62 1.17-0.287 0.253-0.63 0.38-1.03 0.38v0h-0.35c-0.3 0-0.607-0.057-0.92-0.17-0.32-0.12-0.563-0.347-0.73-0.68v0l-4.6-9.3c-0.433-0.867-0.783-1.433-1.05-1.7-0.267-0.267-0.6-0.4-1-0.4v0h-1.25c-0.4 0-0.733 0.133-1 0.4-0.267 0.267-0.617 0.833-1.05 1.7v0l-4.6 9.3c-0.167 0.333-0.407 0.56-0.72 0.68-0.32 0.113-0.63 0.17-0.93 0.17v0h-0.35c-0.4 0-0.74-0.127-1.02-0.38-0.287-0.247-0.497-0.637-0.63-1.17v0l-1.25-5.65c-0.133-0.633-0.207-1.45-0.22-2.45-0.02-1-0.03-1.867-0.03-2.6v0-14.75h0.5v14.7c0 0.733 0.01 1.6 0.03 2.6 0.013 1 0.087 1.817 0.22 2.45v0l1.25 5.7c0.033 0.267 0.167 0.507 0.4 0.72 0.233 0.22 0.483 0.33 0.75 0.33v0h0.25c0.233 0 0.477-0.033 0.73-0.1 0.247-0.067 0.453-0.267 0.62-0.6v0l4.6-9.2c0.467-0.933 0.86-1.56 1.18-1.88 0.313-0.313 0.737-0.47 1.27-0.47zM287.72 10.95h-7.45c-0.633 0-1.09 0.14-1.37 0.42-0.287 0.287-0.43 0.747-0.43 1.38v0 18.4l-2.9-6.3c-0.267-0.567-0.617-0.967-1.05-1.2-0.433-0.233-0.967-0.35-1.6-0.35v0h-2.1c-0.633 0-1.167 0.117-1.6 0.35-0.433 0.233-0.783 0.633-1.05 1.2v0l-2.9 6.3v-18.4c0-0.633-0.14-1.093-0.42-1.38-0.287-0.28-0.747-0.42-1.38-0.42v0h-7.7c-0.633 0-1.09 0.14-1.37 0.42-0.287 0.287-0.43 0.747-0.43 1.38v0 19.3c0 1.067 0.043 2.057 0.13 2.97 0.08 0.92 0.337 1.997 0.77 3.23v0l2.5 6.9c0.167 0.533 0.443 0.967 0.83 1.3 0.38 0.333 0.837 0.5 1.37 0.5v0h6.6c0.533 0 0.983-0.127 1.35-0.38 0.367-0.247 0.617-0.62 0.75-1.12v0l2.35-8.15c0.1-0.333 0.227-0.56 0.38-0.68 0.147-0.113 0.32-0.17 0.52-0.17v0h0.45c0.2 0 0.377 0.057 0.53 0.17 0.147 0.12 0.27 0.347 0.37 0.68v0l2.3 8.15c0.133 0.533 0.417 0.917 0.85 1.15 0.433 0.233 0.917 0.35 1.45 0.35v0h6.65c0.533 0 0.96-0.177 1.28-0.53 0.313-0.347 0.553-0.77 0.72-1.27v0l2.5-6.8c0.433-1.233 0.693-2.31 0.78-3.23 0.08-0.913 0.12-1.903 0.12-2.97v0-19.4c0-0.633-0.14-1.093-0.42-1.38-0.287-0.28-0.747-0.42-1.38-0.42zM267.22 47.5l-5.75 4.8c-0.233 0.167-0.5 0.31-0.8 0.43-0.3 0.113-0.617 0.17-0.95 0.17v0h-6.6c-0.633 0-1.183-0.2-1.65-0.6-0.467-0.4-0.8-0.917-1-1.55v0l-2.5-6.9c-0.467-1.233-0.74-2.327-0.82-3.28-0.087-0.947-0.13-1.97-0.13-3.07v0-19.3c0-0.433 0.06-0.8 0.18-1.1 0.113-0.3 0.287-0.55 0.52-0.75v0l6.45-5.45c0.167-0.133 0.393-0.243 0.68-0.33 0.28-0.08 0.587-0.12 0.92-0.12v0h7.7c0.8 0 1.383 0.183 1.75 0.55 0.367 0.367 0.55 0.95 0.55 1.75v0 13.05l2.8-2.35c0.267-0.233 0.593-0.4 0.98-0.5 0.38-0.1 0.803-0.15 1.27-0.15v0h0.7v-4.6c0-0.433 0.05-0.8 0.15-1.1 0.1-0.3 0.25-0.533 0.45-0.7v0l0.05-0.05 6.5-5.45c0.167-0.133 0.383-0.243 0.65-0.33 0.267-0.08 0.583-0.12 0.95-0.12v0h7.45c0.8 0 1.383 0.183 1.75 0.55 0.367 0.367 0.55 0.95 0.55 1.75v0 19.4c0 1.1-0.04 2.123-0.12 3.07-0.087 0.953-0.363 2.047-0.83 3.28v0l-2.5 6.8c-0.1 0.333-0.233 0.633-0.4 0.9-0.167 0.267-0.367 0.517-0.6 0.75v0l-6.45 5.35c-0.2 0.2-0.417 0.35-0.65 0.45-0.233 0.1-0.5 0.15-0.8 0.15v0h-6.65c-0.667 0-1.25-0.15-1.75-0.45-0.5-0.3-0.85-0.767-1.05-1.4v0z" fill="#ebf446" fill-rule="nonzero" stroke="none" stroke-width="1" stroke-linecap="butt" stroke-linejoin="miter" stroke-miterlimit="10" stroke-dasharray="" stroke-dashoffset="0" font-family="none" font-weight="none" font-size="none" text-anchor="none" style="mix-blend-mode: normal" data-fill-palette-color="primary" opacity="1"></path><path d="M129.7 74.65v0c0.6 0 1.033-0.133 1.3-0.4 0.267-0.267 0.683-0.833 1.25-1.7v0l6.1-9.3c0.2-0.333 0.427-0.56 0.68-0.68 0.247-0.113 0.503-0.17 0.77-0.17v0h0.85c0.467 0 0.81 0.123 1.03 0.37 0.213 0.253 0.32 0.647 0.32 1.18v0 25.45h-0.5v-25.45c0-0.267-0.057-0.51-0.17-0.73-0.12-0.213-0.347-0.32-0.68-0.32v0h-0.75c-0.233 0-0.433 0.033-0.6 0.1-0.167 0.067-0.35 0.267-0.55 0.6v0l-6.1 9.2c-0.6 0.9-1.057 1.517-1.37 1.85-0.32 0.333-0.847 0.5-1.58 0.5v0c-0.733 0-1.257-0.167-1.57-0.5-0.32-0.333-0.78-0.95-1.38-1.85v0l-6.1-9.2c-0.2-0.333-0.39-0.533-0.57-0.6-0.187-0.067-0.397-0.1-0.63-0.1v0h-0.75c-0.333 0-0.55 0.107-0.65 0.32-0.1 0.22-0.15 0.463-0.15 0.73v0 25.45h-0.5v-25.45c0-0.533 0.11-0.927 0.33-1.18 0.213-0.247 0.537-0.37 0.97-0.37v0h0.85c0.267 0 0.533 0.057 0.8 0.17 0.267 0.12 0.5 0.347 0.7 0.68v0l6.1 9.3c0.567 0.867 0.983 1.433 1.25 1.7 0.267 0.267 0.7 0.4 1.3 0.4zM113.9 93.9h7.45c0.633 0 1.093-0.143 1.38-0.43 0.28-0.28 0.42-0.737 0.42-1.37v0-17.6l2.95 5.45c0.3 0.567 0.66 0.973 1.08 1.22 0.413 0.253 0.937 0.38 1.57 0.38v0h2c0.633 0 1.16-0.127 1.58-0.38 0.413-0.247 0.77-0.653 1.07-1.22v0l2.95-5.45v17.6c0 0.633 0.143 1.09 0.43 1.37 0.28 0.287 0.737 0.43 1.37 0.43v0h7.7c0.633 0 1.093-0.143 1.38-0.43 0.28-0.28 0.42-0.737 0.42-1.37v0-32.4c0-0.633-0.14-1.093-0.42-1.38-0.287-0.28-0.747-0.42-1.38-0.42v0h-8.1c-0.533 0-0.977 0.117-1.33 0.35-0.347 0.233-0.67 0.617-0.97 1.15v0l-4.45 8.15c-0.167 0.3-0.307 0.517-0.42 0.65-0.12 0.133-0.28 0.2-0.48 0.2v0h-0.45c-0.2 0-0.357-0.067-0.47-0.2-0.12-0.133-0.263-0.35-0.43-0.65v0l-4.5-8.15c-0.3-0.533-0.623-0.917-0.97-1.15-0.353-0.233-0.797-0.35-1.33-0.35v0h-8.05c-0.633 0-1.09 0.14-1.37 0.42-0.287 0.287-0.43 0.747-0.43 1.38v0 32.4c0 0.633 0.143 1.09 0.43 1.37 0.28 0.287 0.737 0.43 1.37 0.43zM122.95 93.95v0l-6.5 5.4c-0.133 0.133-0.34 0.25-0.62 0.35-0.287 0.1-0.597 0.15-0.93 0.15v0h-7.45c-0.8 0-1.383-0.183-1.75-0.55-0.367-0.367-0.55-0.95-0.55-1.75v0-32.4c0-0.433 0.06-0.8 0.18-1.1 0.113-0.3 0.287-0.55 0.52-0.75v0l6.45-5.45c0.167-0.133 0.393-0.243 0.68-0.33 0.28-0.08 0.587-0.12 0.92-0.12v0h8.05c0.633 0 1.16 0.133 1.58 0.4 0.413 0.267 0.803 0.717 1.17 1.35v0l3.4 6.25 0.45-0.8c0.133-0.233 0.277-0.46 0.43-0.68 0.147-0.213 0.303-0.387 0.47-0.52v0l6.45-5.4c0.267-0.2 0.543-0.35 0.83-0.45 0.28-0.1 0.62-0.15 1.02-0.15v0h8.1c0.8 0 1.383 0.183 1.75 0.55 0.367 0.367 0.55 0.95 0.55 1.75v0 32.4c0 0.433-0.057 0.8-0.17 1.1-0.12 0.3-0.297 0.55-0.53 0.75v0l-6.5 5.4c-0.133 0.133-0.34 0.25-0.62 0.35-0.287 0.1-0.597 0.15-0.93 0.15v0h-7.7c-0.833 0-1.423-0.183-1.77-0.55-0.353-0.367-0.53-0.95-0.53-1.75v0-13.2l-2.95 2.45c-0.267 0.233-0.573 0.407-0.92 0.52-0.353 0.12-0.763 0.18-1.23 0.18v0h-0.65v4.6c0 0.433-0.057 0.8-0.17 1.1-0.12 0.3-0.297 0.55-0.53 0.75zM187.55 92.05l-6.45 5.4c-1.167 1-2.8 1.777-4.9 2.33-2.1 0.547-4.8 0.82-8.1 0.82v0c-3.267 0-5.94-0.34-8.02-1.02-2.087-0.687-3.72-1.597-4.9-2.73-1.187-1.133-2.003-2.433-2.45-3.9-0.453-1.467-0.68-2.983-0.68-4.55v0-15.55c0-1.533 0.217-2.96 0.65-4.28 0.433-1.313 1.217-2.437 2.35-3.37v0l6.5-5.4c1.167-1 2.793-1.777 4.88-2.33 2.08-0.547 4.787-0.82 8.12-0.82v0c3.267 0 5.943 0.267 8.03 0.8 2.08 0.533 3.713 1.273 4.9 2.22 1.18 0.953 1.987 2.087 2.42 3.4 0.433 1.32 0.65 2.763 0.65 4.33v0 17.05c0 1.533-0.217 2.95-0.65 4.25-0.433 1.3-1.217 2.417-2.35 3.35zM190.05 84.45v0-17.05c0-1.533-0.223-2.927-0.67-4.18-0.453-1.247-1.253-2.32-2.4-3.22-1.153-0.9-2.737-1.6-4.75-2.1-2.02-0.5-4.58-0.75-7.68-0.75v0c-3.1 0-5.667 0.25-7.7 0.75-2.033 0.5-3.623 1.2-4.77 2.1-1.153 0.9-1.953 1.973-2.4 3.22-0.453 1.253-0.68 2.647-0.68 4.18v0 17.05c0 1.533 0.227 2.923 0.68 4.17 0.447 1.253 1.247 2.32 2.4 3.2 1.147 0.887 2.737 1.58 4.77 2.08 2.033 0.5 4.6 0.75 7.7 0.75v0c3.1 0 5.66-0.25 7.68-0.75 2.013-0.5 3.597-1.193 4.75-2.08 1.147-0.88 1.947-1.947 2.4-3.2 0.447-1.247 0.67-2.637 0.67-4.17zM184.6 68.55v14.75c0 2-0.717 3.623-2.15 4.87-1.433 1.253-4.1 1.88-8 1.88v0c-3.9 0-6.55-0.627-7.95-1.88-1.4-1.247-2.1-2.87-2.1-4.87v0-14.75c0-2 0.7-3.627 2.1-4.88 1.4-1.247 4.05-1.87 7.95-1.87v0c3.9 0 6.567 0.623 8 1.87 1.433 1.253 2.15 2.88 2.15 4.88zM164.9 68.55v14.75c0 1.867 0.667 3.373 2 4.52 1.333 1.153 3.85 1.73 7.55 1.73v0c3.7 0 6.233-0.577 7.6-1.73 1.367-1.147 2.05-2.653 2.05-4.52v0-14.75c0-1.867-0.683-3.377-2.05-4.53-1.367-1.147-3.9-1.72-7.6-1.72v0c-3.7 0-6.217 0.573-7.55 1.72-1.333 1.153-2 2.663-2 4.53zM170.35 82.65v0-13.45c0-0.633 0.25-1.177 0.75-1.63 0.5-0.447 1.65-0.67 3.45-0.67v0c1.8 0 2.95 0.223 3.45 0.67 0.5 0.453 0.75 0.997 0.75 1.63v0 13.45c0 0.667-0.25 1.223-0.75 1.67-0.5 0.453-1.65 0.68-3.45 0.68v0c-1.8 0-2.95-0.227-3.45-0.68-0.5-0.447-0.75-1.003-0.75-1.67zM170.85 73.2v9.45c0 0.333 0.067 0.623 0.2 0.87 0.133 0.253 0.383 0.463 0.75 0.63v0-9.5c0-0.333-0.067-0.627-0.2-0.88-0.133-0.247-0.383-0.437-0.75-0.57zM229.7 91.8l-6.5 5.4c-1.033 0.867-2.35 1.527-3.95 1.98-1.6 0.447-3.483 0.67-5.65 0.67v0h-16.85c-0.8 0-1.383-0.183-1.75-0.55-0.367-0.367-0.55-0.95-0.55-1.75v0-32.4c0-0.433 0.06-0.8 0.18-1.1 0.113-0.3 0.287-0.55 0.52-0.75v0l6.45-5.45c0.167-0.133 0.393-0.243 0.68-0.33 0.28-0.08 0.587-0.12 0.92-0.12v0h16.85c4.367 0 7.593 0.883 9.68 2.65 2.08 1.767 3.12 4.45 3.12 8.05v0 15.6c0 1.8-0.267 3.373-0.8 4.72-0.533 1.353-1.317 2.48-2.35 3.38zM203.2 93.9h16.85c4.167 0 7.26-0.833 9.28-2.5 2.013-1.667 3.02-4.233 3.02-7.7v0-15.6c0-3.467-1.007-6.033-3.02-7.7-2.02-1.667-5.113-2.5-9.28-2.5v0h-16.85c-0.633 0-1.09 0.14-1.37 0.42-0.287 0.287-0.43 0.747-0.43 1.38v0 32.4c0 0.633 0.143 1.09 0.43 1.37 0.28 0.287 0.737 0.43 1.37 0.43zM218.95 89.4h-12.1v-27h12.1c1.7 0 3.077 0.183 4.13 0.55 1.047 0.367 1.853 0.857 2.42 1.47 0.567 0.62 0.95 1.353 1.15 2.2 0.2 0.853 0.3 1.763 0.3 2.73v0 13.25c0 0.967-0.09 1.867-0.27 2.7-0.187 0.833-0.563 1.55-1.13 2.15-0.567 0.6-1.383 1.073-2.45 1.42-1.067 0.353-2.45 0.53-4.15 0.53zM218.95 62.9v0h-11.6v26h11.6c1.6 0 2.893-0.16 3.88-0.48 0.98-0.313 1.737-0.747 2.27-1.3 0.533-0.547 0.893-1.213 1.08-2 0.18-0.78 0.27-1.62 0.27-2.52v0-13.25c0-0.9-0.1-1.75-0.3-2.55-0.2-0.8-0.567-1.483-1.1-2.05-0.533-0.567-1.29-1.017-2.27-1.35-0.987-0.333-2.263-0.5-3.83-0.5zM212.75 84.45v-17h5.95c0.8 0 1.393 0.19 1.78 0.57 0.38 0.387 0.57 0.997 0.57 1.83v0 12.15c0 0.833-0.19 1.45-0.57 1.85-0.387 0.4-0.98 0.6-1.78 0.6v0zM214.1 83.95v-8.65c0-0.433-0.067-0.8-0.2-1.1-0.133-0.3-0.35-0.517-0.65-0.65v0 10.4zM262.25 99.85v0h-23.2c-0.8 0-1.383-0.183-1.75-0.55-0.367-0.367-0.55-0.95-0.55-1.75v0-32.4c0-0.433 0.06-0.8 0.18-1.1 0.113-0.3 0.287-0.55 0.52-0.75v0l6.45-5.45c0.167-0.133 0.393-0.243 0.68-0.33 0.28-0.08 0.587-0.12 0.92-0.12v0h23.2c0.8 0 1.383 0.183 1.75 0.55 0.367 0.367 0.55 0.95 0.55 1.75v0 5.85c0 0.433-0.057 0.8-0.17 1.1-0.12 0.3-0.297 0.55-0.53 0.75v0l-4.3 3.55c0.333 0.167 0.577 0.417 0.73 0.75 0.147 0.333 0.22 0.767 0.22 1.3v0 5.35c0 0.433-0.057 0.8-0.17 1.1-0.12 0.3-0.297 0.55-0.53 0.75v0l-4.45 3.75h6.9c0.8 0 1.383 0.183 1.75 0.55 0.367 0.367 0.55 0.95 0.55 1.75v0 5.85c0 0.433-0.057 0.8-0.17 1.1-0.12 0.3-0.297 0.55-0.53 0.75v0l-6.5 5.4c-0.133 0.133-0.34 0.25-0.62 0.35-0.287 0.1-0.597 0.15-0.93 0.15zM245.5 93.9h23.2c0.633 0 1.093-0.143 1.38-0.43 0.28-0.28 0.42-0.737 0.42-1.37v0-5.85c0-0.633-0.14-1.093-0.42-1.38-0.287-0.28-0.747-0.42-1.38-0.42v0h-13.8v-4.3h9.75c0.633 0 1.093-0.143 1.38-0.43 0.28-0.28 0.42-0.737 0.42-1.37v0-5.35c0-0.633-0.14-1.093-0.42-1.38-0.287-0.28-0.747-0.42-1.38-0.42v0h-9.75v-3.85h13.8c0.633 0 1.093-0.143 1.38-0.43 0.28-0.28 0.42-0.737 0.42-1.37v0-5.85c0-0.633-0.14-1.093-0.42-1.38-0.287-0.28-0.747-0.42-1.38-0.42v0h-23.2c-0.633 0-1.09 0.14-1.37 0.42-0.287 0.287-0.43 0.747-0.43 1.38v0 32.4c0 0.633 0.143 1.09 0.43 1.37 0.28 0.287 0.737 0.43 1.37 0.43zM249.65 88.9h16.35v0.5h-16.85v-27h16.85v0.5h-16.35v12.55h12.3v0.5h-12.3zM302.2 99.85v0h-25.45c-0.8 0-1.383-0.183-1.75-0.55-0.367-0.367-0.55-0.95-0.55-1.75v0-32.4c0-0.433 0.06-0.8 0.18-1.1 0.113-0.3 0.287-0.55 0.52-0.75v0l6.45-5.45c0.167-0.133 0.393-0.243 0.68-0.33 0.28-0.08 0.587-0.12 0.92-0.12v0h7.75c0.8 0 1.383 0.183 1.75 0.55 0.367 0.367 0.55 0.95 0.55 1.75v0 20.35l0.1-0.1 6.45-5.45c0.167-0.133 0.393-0.243 0.68-0.33 0.28-0.08 0.587-0.12 0.92-0.12v0h7.25c0.8 0 1.383 0.183 1.75 0.55 0.367 0.367 0.55 0.95 0.55 1.75v0 15.75c0 0.433-0.057 0.8-0.17 1.1-0.12 0.3-0.297 0.55-0.53 0.75v0l-6.5 5.4c-0.133 0.133-0.34 0.25-0.62 0.35-0.287 0.1-0.597 0.15-0.93 0.15zM283.2 93.9h25.45c0.633 0 1.093-0.143 1.38-0.43 0.28-0.28 0.42-0.737 0.42-1.37v0-15.75c0-0.633-0.14-1.093-0.42-1.38-0.287-0.28-0.747-0.42-1.38-0.42v0h-7.25c-0.633 0-1.09 0.14-1.37 0.42-0.287 0.287-0.43 0.747-0.43 1.38v0 8.1h-6.85v-24.75c0-0.633-0.14-1.093-0.42-1.38-0.287-0.28-0.747-0.42-1.38-0.42v0h-7.75c-0.633 0-1.09 0.14-1.37 0.42-0.287 0.287-0.43 0.747-0.43 1.38v0 32.4c0 0.633 0.143 1.09 0.43 1.37 0.28 0.287 0.737 0.43 1.37 0.43zM305.25 89.4h-18.4v-27h0.5v26.5h17.4v-9.85h0.5z" fill="#ebf446" fill-rule="nonzero" stroke="none" stroke-width="1" stroke-linecap="butt" stroke-linejoin="miter" stroke-miterlimit="10" stroke-dasharray="" stroke-dashoffset="0" font-family="none" font-weight="none" font-size="none" text-anchor="none" style="mix-blend-mode: normal" data-fill-palette-color="primary" opacity="1"></path></g></svg></g></svg></g></svg></g></svg></g><g></g></svg></g></svg></g></svg></g></svg></g><defs></defs></svg><rect width="320" height="360" fill="none" stroke="none" visibility="hidden"></rect></g></svg></g></svg>